<mxfile host="app.diagrams.net" modified="2021-06-04T03:34:25.781Z" agent="5.0 (Windows NT 10.0; Win64; x64) AppleWebKit/537.36 (KHTML, like Gecko) Chrome/91.0.4472.77 Safari/537.36" etag="MXppVoppfb_qyfL4wMzp" version="14.7.4" type="github">
  <diagram id="gjxn2n7odaqYsj614g3Y" name="Page-1">
    <mxGraphModel dx="1262" dy="1835" grid="1" gridSize="10" guides="1" tooltips="1" connect="1" arrows="1" fold="1" page="1" pageScale="1" pageWidth="827" pageHeight="1169" math="0" shadow="0">
      <root>
        <mxCell id="0" />
        <mxCell id="1" parent="0" />
        <mxCell id="GUyFM1-ZeH90q6z3xL7C-6" style="edgeStyle=orthogonalEdgeStyle;rounded=0;orthogonalLoop=1;jettySize=auto;html=1;entryX=0.48;entryY=0.133;entryDx=0;entryDy=0;entryPerimeter=0;" parent="1" source="GUyFM1-ZeH90q6z3xL7C-4" edge="1">
          <mxGeometry relative="1" as="geometry">
            <mxPoint x="624.4000000000001" y="-219.76" as="targetPoint" />
          </mxGeometry>
        </mxCell>
        <mxCell id="GUyFM1-ZeH90q6z3xL7C-4" value="软著申请者" style="shape=umlActor;verticalLabelPosition=bottom;verticalAlign=top;html=1;outlineConnect=0;" parent="1" vertex="1">
          <mxGeometry x="610" y="-350" width="30" height="60" as="geometry" />
        </mxCell>
        <mxCell id="GUyFM1-ZeH90q6z3xL7C-14" style="edgeStyle=orthogonalEdgeStyle;rounded=0;orthogonalLoop=1;jettySize=auto;html=1;" parent="1" source="GUyFM1-ZeH90q6z3xL7C-7" edge="1">
          <mxGeometry relative="1" as="geometry">
            <mxPoint x="630" y="-90" as="targetPoint" />
          </mxGeometry>
        </mxCell>
        <mxCell id="GUyFM1-ZeH90q6z3xL7C-7" value="进入网站&lt;br&gt;http://www.ccopyright.com.cn/" style="rounded=0;whiteSpace=wrap;html=1;" parent="1" vertex="1">
          <mxGeometry x="540" y="-220" width="180" height="50" as="geometry" />
        </mxCell>
        <mxCell id="GUyFM1-ZeH90q6z3xL7C-10" style="edgeStyle=orthogonalEdgeStyle;rounded=0;orthogonalLoop=1;jettySize=auto;html=1;entryX=1;entryY=0.5;entryDx=0;entryDy=0;" parent="1" source="GUyFM1-ZeH90q6z3xL7C-8" target="GUyFM1-ZeH90q6z3xL7C-7" edge="1">
          <mxGeometry relative="1" as="geometry">
            <mxPoint x="1260" y="-45" as="targetPoint" />
            <Array as="points">
              <mxPoint x="810" y="-45" />
              <mxPoint x="810" y="-195" />
            </Array>
          </mxGeometry>
        </mxCell>
        <mxCell id="GUyFM1-ZeH90q6z3xL7C-15" style="edgeStyle=orthogonalEdgeStyle;rounded=0;orthogonalLoop=1;jettySize=auto;html=1;entryX=0.5;entryY=0;entryDx=0;entryDy=0;" parent="1" source="GUyFM1-ZeH90q6z3xL7C-8" target="GUyFM1-ZeH90q6z3xL7C-13" edge="1">
          <mxGeometry relative="1" as="geometry" />
        </mxCell>
        <mxCell id="GUyFM1-ZeH90q6z3xL7C-8" value="浏览器是否兼容" style="rhombus;whiteSpace=wrap;html=1;" parent="1" vertex="1">
          <mxGeometry x="565" y="-90" width="130" height="90" as="geometry" />
        </mxCell>
        <mxCell id="GUyFM1-ZeH90q6z3xL7C-11" value="不兼容，建议使用IE或其他浏览器" style="text;html=1;strokeColor=none;fillColor=none;align=center;verticalAlign=middle;whiteSpace=wrap;rounded=0;" parent="1" vertex="1">
          <mxGeometry x="810" y="-130" width="120" height="20" as="geometry" />
        </mxCell>
        <mxCell id="GUyFM1-ZeH90q6z3xL7C-17" style="edgeStyle=orthogonalEdgeStyle;rounded=0;orthogonalLoop=1;jettySize=auto;html=1;" parent="1" source="GUyFM1-ZeH90q6z3xL7C-13" target="GUyFM1-ZeH90q6z3xL7C-18" edge="1">
          <mxGeometry relative="1" as="geometry">
            <mxPoint x="630" y="200" as="targetPoint" />
          </mxGeometry>
        </mxCell>
        <mxCell id="GUyFM1-ZeH90q6z3xL7C-13" value="用户注册" style="rounded=0;whiteSpace=wrap;html=1;" parent="1" vertex="1">
          <mxGeometry x="570" y="70" width="120" height="60" as="geometry" />
        </mxCell>
        <mxCell id="GUyFM1-ZeH90q6z3xL7C-16" value="兼容" style="text;html=1;align=center;verticalAlign=middle;resizable=0;points=[];autosize=1;strokeColor=none;" parent="1" vertex="1">
          <mxGeometry x="630" y="20" width="40" height="20" as="geometry" />
        </mxCell>
        <mxCell id="GUyFM1-ZeH90q6z3xL7C-19" style="edgeStyle=orthogonalEdgeStyle;rounded=0;orthogonalLoop=1;jettySize=auto;html=1;" parent="1" source="GUyFM1-ZeH90q6z3xL7C-18" edge="1">
          <mxGeometry relative="1" as="geometry">
            <mxPoint x="630" y="450" as="targetPoint" />
          </mxGeometry>
        </mxCell>
        <mxCell id="GUyFM1-ZeH90q6z3xL7C-18" value="根据网站提示完善，需要用到的重要资料&lt;br&gt;如下所示：&lt;br&gt;申请人身份证正反面扫描件&lt;br&gt;企业的营业执照扫描件" style="rounded=0;whiteSpace=wrap;html=1;" parent="1" vertex="1">
          <mxGeometry x="510" y="170" width="240" height="100" as="geometry" />
        </mxCell>
        <mxCell id="GUyFM1-ZeH90q6z3xL7C-22" style="edgeStyle=orthogonalEdgeStyle;rounded=0;orthogonalLoop=1;jettySize=auto;html=1;" parent="1" source="GUyFM1-ZeH90q6z3xL7C-20" edge="1">
          <mxGeometry relative="1" as="geometry">
            <mxPoint x="635" y="580" as="targetPoint" />
          </mxGeometry>
        </mxCell>
        <mxCell id="GUyFM1-ZeH90q6z3xL7C-20" value="按提示下载授权书打印；打印填写信息，然后扫描成电子档。完成神奇认证" style="rounded=0;whiteSpace=wrap;html=1;" parent="1" vertex="1">
          <mxGeometry x="540" y="450" width="190" height="60" as="geometry" />
        </mxCell>
        <mxCell id="GUyFM1-ZeH90q6z3xL7C-21" value="填写到申请认证信息最后一栏" style="text;html=1;align=center;verticalAlign=middle;resizable=0;points=[];autosize=1;strokeColor=none;" parent="1" vertex="1">
          <mxGeometry x="630" y="350" width="170" height="20" as="geometry" />
        </mxCell>
        <mxCell id="GUyFM1-ZeH90q6z3xL7C-23" value="约三个工作日" style="text;html=1;align=center;verticalAlign=middle;resizable=0;points=[];autosize=1;strokeColor=none;" parent="1" vertex="1">
          <mxGeometry x="630" y="530" width="90" height="20" as="geometry" />
        </mxCell>
        <mxCell id="GUyFM1-ZeH90q6z3xL7C-25" style="edgeStyle=orthogonalEdgeStyle;rounded=0;orthogonalLoop=1;jettySize=auto;html=1;entryX=1;entryY=0.5;entryDx=0;entryDy=0;" parent="1" source="GUyFM1-ZeH90q6z3xL7C-24" target="GUyFM1-ZeH90q6z3xL7C-18" edge="1">
          <mxGeometry relative="1" as="geometry">
            <Array as="points">
              <mxPoint x="930" y="620" />
              <mxPoint x="930" y="220" />
            </Array>
          </mxGeometry>
        </mxCell>
        <mxCell id="GUyFM1-ZeH90q6z3xL7C-27" style="edgeStyle=orthogonalEdgeStyle;rounded=0;orthogonalLoop=1;jettySize=auto;html=1;entryX=0.5;entryY=0;entryDx=0;entryDy=0;" parent="1" source="GUyFM1-ZeH90q6z3xL7C-24" target="GUyFM1-ZeH90q6z3xL7C-26" edge="1">
          <mxGeometry relative="1" as="geometry" />
        </mxCell>
        <mxCell id="GUyFM1-ZeH90q6z3xL7C-24" value="审核认证" style="rhombus;whiteSpace=wrap;html=1;" parent="1" vertex="1">
          <mxGeometry x="595" y="580" width="80" height="80" as="geometry" />
        </mxCell>
        <mxCell id="GUyFM1-ZeH90q6z3xL7C-28" style="edgeStyle=orthogonalEdgeStyle;rounded=0;orthogonalLoop=1;jettySize=auto;html=1;" parent="1" source="GUyFM1-ZeH90q6z3xL7C-26" edge="1">
          <mxGeometry relative="1" as="geometry">
            <mxPoint x="635" y="880" as="targetPoint" />
          </mxGeometry>
        </mxCell>
        <mxCell id="GUyFM1-ZeH90q6z3xL7C-26" value="申请软著&lt;br&gt;根据要求填写信息" style="rounded=0;whiteSpace=wrap;html=1;" parent="1" vertex="1">
          <mxGeometry x="575" y="740" width="120" height="60" as="geometry" />
        </mxCell>
        <mxCell id="GUyFM1-ZeH90q6z3xL7C-29" value="" style="rounded=0;whiteSpace=wrap;html=1;" parent="1" vertex="1">
          <mxGeometry x="575" y="880" width="120" height="60" as="geometry" />
        </mxCell>
      </root>
    </mxGraphModel>
  </diagram>
</mxfile>
